<svg width="144" height="144" viewBox="0 0 144 144" fill="none" xmlns="http://www.w3.org/2000/svg">
<rect width="144" height="144" rx="20" fill="#667eea"/>
<path d="M72 32C51.0294 32 34 49.0294 34 70V74C34 76.2091 35.7909 78 38 78H42C44.2091 78 46 76.2091 46 74V70C46 55.6406 57.6406 44 72 44C86.3594 44 98 55.6406 98 70V74C98 76.2091 99.7909 78 102 78H106C108.209 78 110 76.2091 110 74V70C110 49.0294 92.9706 32 72 32Z" fill="white"/>
<path d="M34 86C31.7909 86 30 87.7909 30 90V106C30 108.209 31.7909 110 34 110H110C112.209 110 114 108.209 114 106V90C114 87.7909 112.209 86 110 86H34Z" fill="white"/>
<circle cx="72" cy="98" r="8" fill="#667eea"/>
</svg>
